<?xml version="1.0" standalone="no"?>
<!DOCTYPE svg PUBLIC "-//W3C//DTD SVG 20010904//EN"
 "http://www.w3.org/TR/2001/REC-SVG-20010904/DTD/svg10.dtd">
<svg version="1.0" xmlns="http://www.w3.org/2000/svg"
 width="200.000000pt" height="200.000000pt" viewBox="0 0 200.000000 200.000000"
 preserveAspectRatio="xMidYMid meet">
<metadata>
Created by potrace 1.16, written by Peter Selinger 2001-2019
</metadata>
<g transform="translate(0.000000,200.000000) scale(0.100000,-0.100000)"
fill="#000000" stroke="none">
<path d="M183 1159 c-32 -16 -48 -33 -68 -72 -71 -143 30 -294 183 -273 55 7
101 35 125 75 l18 31 -30 0 c-20 0 -34 -7 -41 -21 -7 -11 -28 -27 -47 -36 -51
-21 -103 -9 -143 32 -27 28 -34 44 -38 88 -8 100 50 162 142 154 40 -4 55 -11
78 -36 48 -53 92 -34 48 21 -45 59 -150 75 -227 37z"/>
<path d="M1020 995 l0 -188 83 5 c101 7 146 25 183 74 26 33 29 46 29 109 0
127 -54 175 -207 183 l-88 4 0 -187z m173 131 c59 -25 72 -49 72 -133 0 -73
-1 -76 -34 -104 -24 -19 -50 -30 -87 -35 -86 -10 -84 -14 -84 146 l0 140 50 0
c28 0 65 -6 83 -14z"/>
<path d="M1462 998 l3 -183 95 0 c82 0 95 2 98 18 3 15 -6 17 -72 17 l-76 0 0
65 0 65 65 0 c58 0 65 2 65 20 0 18 -7 20 -65 20 l-65 0 0 60 0 60 76 0 c66 0
75 2 72 18 -3 15 -17 17 -101 20 l-97 3 2 -183z"/>
<path d="M576 1141 l-27 -29 31 -22 c38 -27 110 -50 157 -50 41 0 88 20 128
54 l30 25 -30 25 c-28 23 -32 23 -53 9 -41 -26 -122 -28 -169 -5 l-40 21 -27
-28z"/>
<path d="M651 959 c-18 -6 -51 -22 -72 -36 l-40 -26 32 -33 c28 -29 35 -32 48
-20 46 40 126 42 187 5 l31 -19 29 31 29 30 -25 20 c-56 45 -155 67 -219 48z"/>
</g>
</svg>
